<svg xmlns="http://www.w3.org/2000/svg" aria-hidden="true" style="position:absolute;width:0;height:0;overflow:hidden">
    <defs>
        <symbol id="icon-Number6" viewBox="0 0 22 32">
            <path
                d="M11.846.138h4.461L9.601 11.825a10.138 10.138 0 1 1-6.899 4.268L11.847.141zM5.28 19.357a6.277 6.277 0 0 0 7.558 8.52 6.274 6.274 0 0 0 4.294-7.484 6.277 6.277 0 0 0-11.168-2.226l-.684 1.191z" />
        </symbol>
        <symbol id="icon-Number5" viewBox="0 0 22 32">
            <path
                d="M2.429 0h17v4h-13v8h5a9.996 9.996 0 0 1 9.8 8h.2v2a10.001 10.001 0 0 1-10 10h-1a10.001 10.001 0 0 1-10-10h4a5.996 5.996 0 0 0 6 6h1a5.996 5.996 0 0 0 6-6 5.996 5.996 0 0 0-6-6h-9V0z" />
        </symbol>
        <symbol id="icon-Number4" viewBox="0 0 24 32">
            <path d="M14.55 0h5.022v20h4v4h-4v8h-4v-8h-15v-4.646L14.55 0zm1.021 20V5.416L5.039 20h10.532z" />
        </symbol>
        <symbol id="icon-Number3" viewBox="0 0 22 32">
            <path
                d="M2.429 0h18v6.04l-8.528 5.972A10 10 0 0 1 11.428 32h-1a10.001 10.001 0 0 1-10-10h4a5.996 5.996 0 0 0 6 6h1a5.996 5.996 0 0 0 6-6 5.996 5.996 0 0 0-6-6h-5v-5.04L16.368 4H2.428V0z" />
        </symbol>
        <symbol id="icon-Number2" viewBox="0 0 19 32">
            <path
                d="M.267 9.6A9.333 9.333 0 0 1 9.601.266h1.867v.187c4.26.864 7.467 4.631 7.467 9.147v.121a9.45 9.45 0 0 1-3.493 7.338L4.001 26.355v1.911h14.933v3.733H.267v-5.645a3.725 3.725 0 0 1 1.38-2.897l11.441-9.296a5.722 5.722 0 0 0 2.113-4.441v-.121a5.601 5.601 0 0 0-11.2 0v1.867H.268V9.599z" />
        </symbol>
        <symbol id="icon-Number1" viewBox="0 0 10 32">
            <path d="M9.655 32V.138H6.113L.192 4.579l2.317 3.09 3.283-2.462V32h3.862z" />
        </symbol>
        <symbol id="icon-google-focus" viewBox="0 0 111 32">
            <path fill="#5f0072"
                d="M106.52 32H4.097C1.845 32 0 30.199 0 28V4c0-2.199 1.845-4 4.097-4H106.52c2.252 0 4.097 1.801 4.097 4v24c0 2.199-1.845 4-4.097 4z"
                style="fill:var(--color1, #5f0072)" />
            <path fill="#fff"
                d="M38.853 8.195c0 .668-.205 1.203-.608 1.602-.464.473-1.068.711-1.809.711a2.517 2.517 0 0 1-1.808-.719c-.497-.484-.745-1.078-.745-1.789s.248-1.305.745-1.785a2.504 2.504 0 0 1 1.808-.723c.352 0 .688.071 1.009.203.32.133.58.313.768.535l-.428.422c-.329-.379-.776-.566-1.349-.566-.516 0-.964.176-1.344.531-.376.356-.564.817-.564 1.383s.188 1.031.564 1.387c.38.351.828.531 1.344.531.548 0 1.009-.18 1.372-.535.24-.235.376-.559.412-.973h-1.784v-.578h2.38c.029.125.037.246.037.363zM42.63 6.191h-2.236v1.52h2.016v.578h-2.016v1.52h2.236v.589h-2.869V5.602h2.869v.589zM45.295 10.398h-.633V6.191h-1.371v-.589h3.377v.589h-1.372v4.207zM49.111 10.398V5.602h.632v4.796h-.632zM52.544 10.398h-.628V6.191h-1.377v-.589h3.381v.589h-1.377v4.207zM60.314 9.781c-.484.485-1.085.727-1.801.727-.72 0-1.32-.242-1.805-.727-.483-.484-.724-1.078-.724-1.781s.241-1.297.724-1.781c.484-.485 1.085-.727 1.805-.727.712 0 1.312.242 1.797.731.487.488.728 1.078.728 1.777 0 .703-.241 1.297-.724 1.781zm-3.137-.402a1.83 1.83 0 0 0 1.337.539c.524 0 .972-.18 1.333-.539.364-.359.548-.82.548-1.379s-.184-1.02-.548-1.379a1.822 1.822 0 0 0-1.333-.539c-.529 0-.972.18-1.337.539-.364.359-.548.82-.548 1.379s.184 1.02.548 1.379zM61.926 10.398V5.602h.768l2.388 3.73h.028l-.028-.922V5.602h.632v4.796h-.659l-2.502-3.914h-.028l.028.926v2.988h-.628zM55.829 17.402c-1.925 0-3.497 1.43-3.497 3.403 0 1.957 1.572 3.402 3.497 3.402 1.929 0 3.501-1.445 3.501-3.402 0-1.973-1.572-3.403-3.501-3.403zm0 5.465c-1.056 0-1.964-.851-1.964-2.062 0-1.227.908-2.063 1.964-2.063s1.969.836 1.969 2.063c0 1.211-.913 2.062-1.969 2.062zm-7.63-5.465c-1.929 0-3.497 1.43-3.497 3.403 0 1.957 1.568 3.402 3.497 3.402 1.928 0 3.497-1.445 3.497-3.402 0-1.973-1.569-3.403-3.497-3.403zm0 5.465c-1.057 0-1.969-.851-1.969-2.062 0-1.227.912-2.063 1.969-2.063s1.965.836 1.965 2.063c0 1.211-.908 2.062-1.965 2.062zm-9.079-4.422v1.446h3.537c-.103.808-.38 1.402-.804 1.816-.516.5-1.32 1.055-2.733 1.055-2.176 0-3.881-1.715-3.881-3.84s1.704-3.84 3.881-3.84c1.177 0 2.033.449 2.665 1.031l1.044-1.019c-.884-.824-2.06-1.457-3.709-1.457-2.985 0-5.493 2.371-5.493 5.285s2.508 5.285 5.493 5.285c1.613 0 2.825-.516 3.777-1.484.976-.953 1.28-2.293 1.28-3.375 0-.336-.029-.645-.08-.903h-4.978zm37.125 1.121c-.288-.761-1.176-2.164-2.985-2.164-1.793 0-3.285 1.379-3.285 3.403 0 1.906 1.477 3.402 3.457 3.402a3.474 3.474 0 0 0 2.905-1.508l-1.188-.773c-.396.566-.937.941-1.717.941-.775 0-1.332-.347-1.688-1.031l4.662-1.883-.161-.387zm-4.753 1.133a1.887 1.887 0 0 1 1.82-1.984c.609 0 1.125.297 1.297.722l-3.117 1.262zM67.703 24h1.532V14h-1.532v10zm-2.509-5.84h-.052c-.344-.398-1.001-.758-1.832-.758-1.745 0-3.341 1.496-3.341 3.414 0 1.907 1.596 3.391 3.341 3.391.831 0 1.488-.363 1.832-.773h.052v.488c0 1.301-.712 2-1.86 2-.936 0-1.517-.66-1.756-1.215l-1.333.543a3.324 3.324 0 0 0 3.089 2.012c1.796 0 3.313-1.032 3.313-3.543v-6.11h-1.452v.551zm-1.752 4.707c-1.056 0-1.94-.863-1.94-2.051 0-1.199.884-2.074 1.94-2.074 1.041 0 1.861.875 1.861 2.074 0 1.188-.82 2.051-1.861 2.051zM83.418 14h-3.665v10h1.528v-3.789h2.137c1.697 0 3.361-1.199 3.361-3.106S85.111 14 83.418 14zm.04 4.82h-2.177v-3.429h2.177c1.141 0 1.792.925 1.792 1.714 0 .774-.651 1.715-1.792 1.715zm9.447-1.437c-1.104 0-2.252.476-2.724 1.531l1.356.555c.292-.555.828-.735 1.396-.735.793 0 1.597.465 1.609 1.286v.105c-.276-.156-.868-.387-1.597-.387-1.46 0-2.949.785-2.949 2.25 0 1.34 1.196 2.203 2.542 2.203 1.028 0 1.596-.453 1.952-.98h.052v.773h1.476v-3.836c0-1.773-1.356-2.765-3.113-2.765zm-.184 5.48c-.5 0-1.196-.242-1.196-.847 0-.774.868-1.071 1.62-1.071.673 0 .988.145 1.397.336-.12.926-.936 1.582-1.821 1.582zm8.673-5.261-1.756 4.335h-.052l-1.816-4.335h-1.648l2.729 6.058-1.557 3.371h1.597l4.204-9.429h-1.7zM87.62 24h1.532V14H87.62v10z"
                style="fill:var(--color2, #fff)" />
            <path
                d="M8.55 6.031c-.241.246-.38.629-.38 1.125v17.692c0 .496.139.879.38 1.125l.059.054 10.154-9.91v-.234L8.609 5.973l-.059.058zM22.145 19.422l-3.381-3.305v-.234l3.385-3.305.076.043 4.009 2.227c1.144.632 1.144 1.672 0 2.308l-4.089 2.266z"
                style="fill:var(--color3, #000)" />
            <path
                d="M22.225 19.379 18.764 16 8.55 25.973c.38.39 1 .437 1.704.047l11.97-6.641zM22.225 12.621 10.255 5.98c-.705-.386-1.324-.339-1.704.051L18.765 16l3.461-3.379z"
                style="fill:var(--color3, #000)" />
        </symbol>
        <symbol id="icon-google-hover" viewBox="0 0 111 32">
            <path fill="#891971"
                d="M106.52 32H4.097C1.845 32 0 30.199 0 28V4c0-2.199 1.845-4 4.097-4H106.52c2.252 0 4.097 1.801 4.097 4v24c0 2.199-1.845 4-4.097 4z"
                style="fill:var(--color4, #891971)" />
            <path fill="#fff"
                d="M38.853 8.195c0 .668-.205 1.203-.608 1.602-.464.473-1.068.711-1.809.711a2.517 2.517 0 0 1-1.808-.719c-.497-.484-.745-1.078-.745-1.789s.248-1.305.745-1.785a2.504 2.504 0 0 1 1.808-.723c.352 0 .688.071 1.009.203.32.133.58.313.768.535l-.428.422c-.329-.379-.776-.566-1.349-.566-.516 0-.964.176-1.344.531-.376.356-.564.817-.564 1.383s.188 1.031.564 1.387c.38.351.828.531 1.344.531.548 0 1.009-.18 1.372-.535.24-.235.376-.559.412-.973h-1.784v-.578h2.38c.029.125.037.246.037.363zM42.63 6.191h-2.236v1.52h2.016v.578h-2.016v1.52h2.236v.589h-2.869V5.602h2.869v.589zM45.295 10.398h-.633V6.191h-1.371v-.589h3.377v.589h-1.372v4.207zM49.111 10.398V5.602h.632v4.796h-.632zM52.544 10.398h-.628V6.191h-1.377v-.589h3.381v.589h-1.377v4.207zM60.314 9.781c-.484.485-1.085.727-1.801.727-.72 0-1.32-.242-1.805-.727-.483-.484-.724-1.078-.724-1.781s.241-1.297.724-1.781c.484-.485 1.085-.727 1.805-.727.712 0 1.312.242 1.797.731.487.488.728 1.078.728 1.777 0 .703-.241 1.297-.724 1.781zm-3.137-.402a1.83 1.83 0 0 0 1.337.539c.524 0 .972-.18 1.333-.539.364-.359.548-.82.548-1.379s-.184-1.02-.548-1.379a1.822 1.822 0 0 0-1.333-.539c-.529 0-.972.18-1.337.539-.364.359-.548.82-.548 1.379s.184 1.02.548 1.379zM61.926 10.398V5.602h.768l2.388 3.73h.028l-.028-.922V5.602h.632v4.796h-.659l-2.502-3.914h-.028l.028.926v2.988h-.628zM55.829 17.402c-1.925 0-3.497 1.43-3.497 3.403 0 1.957 1.572 3.402 3.497 3.402 1.929 0 3.501-1.445 3.501-3.402 0-1.973-1.572-3.403-3.501-3.403zm0 5.465c-1.056 0-1.964-.851-1.964-2.062 0-1.227.908-2.063 1.964-2.063s1.969.836 1.969 2.063c0 1.211-.913 2.062-1.969 2.062zm-7.63-5.465c-1.929 0-3.497 1.43-3.497 3.403 0 1.957 1.568 3.402 3.497 3.402 1.928 0 3.497-1.445 3.497-3.402 0-1.973-1.569-3.403-3.497-3.403zm0 5.465c-1.057 0-1.969-.851-1.969-2.062 0-1.227.912-2.063 1.969-2.063s1.965.836 1.965 2.063c0 1.211-.908 2.062-1.965 2.062zm-9.079-4.422v1.446h3.537c-.103.808-.38 1.402-.804 1.816-.516.5-1.32 1.055-2.733 1.055-2.176 0-3.881-1.715-3.881-3.84s1.704-3.84 3.881-3.84c1.177 0 2.033.449 2.665 1.031l1.044-1.019c-.884-.824-2.06-1.457-3.709-1.457-2.985 0-5.493 2.371-5.493 5.285s2.508 5.285 5.493 5.285c1.613 0 2.825-.516 3.777-1.484.976-.953 1.28-2.293 1.28-3.375 0-.336-.029-.645-.08-.903h-4.978zm37.125 1.121c-.288-.761-1.176-2.164-2.985-2.164-1.793 0-3.285 1.379-3.285 3.403 0 1.906 1.477 3.402 3.457 3.402a3.474 3.474 0 0 0 2.905-1.508l-1.188-.773c-.396.566-.937.941-1.717.941-.775 0-1.332-.347-1.688-1.031l4.662-1.883-.161-.387zm-4.753 1.133a1.887 1.887 0 0 1 1.82-1.984c.609 0 1.125.297 1.297.722l-3.117 1.262zM67.703 24h1.532V14h-1.532v10zm-2.509-5.84h-.052c-.344-.398-1.001-.758-1.832-.758-1.745 0-3.341 1.496-3.341 3.414 0 1.907 1.596 3.391 3.341 3.391.831 0 1.488-.363 1.832-.773h.052v.488c0 1.301-.712 2-1.86 2-.936 0-1.517-.66-1.756-1.215l-1.333.543a3.324 3.324 0 0 0 3.089 2.012c1.796 0 3.313-1.032 3.313-3.543v-6.11h-1.452v.551zm-1.752 4.707c-1.056 0-1.94-.863-1.94-2.051 0-1.199.884-2.074 1.94-2.074 1.041 0 1.861.875 1.861 2.074 0 1.188-.82 2.051-1.861 2.051zM83.418 14h-3.665v10h1.528v-3.789h2.137c1.697 0 3.361-1.199 3.361-3.106S85.111 14 83.418 14zm.04 4.82h-2.177v-3.429h2.177c1.141 0 1.792.925 1.792 1.714 0 .774-.651 1.715-1.792 1.715zm9.447-1.437c-1.104 0-2.252.476-2.724 1.531l1.356.555c.292-.555.828-.735 1.396-.735.793 0 1.597.465 1.609 1.286v.105c-.276-.156-.868-.387-1.597-.387-1.46 0-2.949.785-2.949 2.25 0 1.34 1.196 2.203 2.542 2.203 1.028 0 1.596-.453 1.952-.98h.052v.773h1.476v-3.836c0-1.773-1.356-2.765-3.113-2.765zm-.184 5.48c-.5 0-1.196-.242-1.196-.847 0-.774.868-1.071 1.62-1.071.673 0 .988.145 1.397.336-.12.926-.936 1.582-1.821 1.582zm8.673-5.261-1.756 4.335h-.052l-1.816-4.335h-1.648l2.729 6.058-1.557 3.371h1.597l4.204-9.429h-1.7zM87.62 24h1.532V14H87.62v10z"
                style="fill:var(--color2, #fff)" />
            <path
                d="M8.55 6.031c-.241.246-.38.629-.38 1.125v17.692c0 .496.139.879.38 1.125l.059.054 10.154-9.91v-.234L8.609 5.973l-.059.058zM22.145 19.422l-3.381-3.305v-.234l3.385-3.305.076.043 4.009 2.227c1.144.632 1.144 1.672 0 2.308l-4.089 2.266z"
                style="fill:var(--color3, #000)" />
            <path
                d="M22.225 19.379 18.764 16 8.55 25.973c.38.39 1 .437 1.704.047l11.97-6.641zM22.225 12.621 10.255 5.98c-.705-.386-1.324-.339-1.704.051L18.765 16l3.461-3.379z"
                style="fill:var(--color3, #000)" />
        </symbol>
        <symbol id="icon-google-default" viewBox="0 0 111 32">
            <path fill="#9e2283"
                d="M106.52 32H4.097C1.845 32 0 30.199 0 28V4c0-2.199 1.845-4 4.097-4H106.52c2.252 0 4.097 1.801 4.097 4v24c0 2.199-1.845 4-4.097 4z"
                style="fill:var(--color5, #9e2283)" />
            <path fill="#fff"
                d="M38.853 8.195c0 .668-.205 1.203-.608 1.602-.464.473-1.068.711-1.809.711a2.517 2.517 0 0 1-1.808-.719c-.497-.484-.745-1.078-.745-1.789s.248-1.305.745-1.785a2.504 2.504 0 0 1 1.808-.723c.352 0 .688.071 1.009.203.32.133.58.313.768.535l-.428.422c-.329-.379-.776-.566-1.349-.566-.516 0-.964.176-1.344.531-.376.356-.564.817-.564 1.383s.188 1.031.564 1.387c.38.351.828.531 1.344.531.548 0 1.009-.18 1.372-.535.24-.235.376-.559.412-.973h-1.784v-.578h2.38c.029.125.037.246.037.363zM42.63 6.191h-2.236v1.52h2.016v.578h-2.016v1.52h2.236v.589h-2.869V5.602h2.869v.589zM45.295 10.398h-.633V6.191h-1.371v-.589h3.377v.589h-1.372v4.207zM49.111 10.398V5.602h.632v4.796h-.632zM52.544 10.398h-.628V6.191h-1.377v-.589h3.381v.589h-1.377v4.207zM60.314 9.781c-.484.485-1.085.727-1.801.727-.72 0-1.32-.242-1.805-.727-.483-.484-.724-1.078-.724-1.781s.241-1.297.724-1.781c.484-.485 1.085-.727 1.805-.727.712 0 1.312.242 1.797.731.487.488.728 1.078.728 1.777 0 .703-.241 1.297-.724 1.781zm-3.137-.402a1.83 1.83 0 0 0 1.337.539c.524 0 .972-.18 1.333-.539.364-.359.548-.82.548-1.379s-.184-1.02-.548-1.379a1.822 1.822 0 0 0-1.333-.539c-.529 0-.972.18-1.337.539-.364.359-.548.82-.548 1.379s.184 1.02.548 1.379zM61.926 10.398V5.602h.768l2.388 3.73h.028l-.028-.922V5.602h.632v4.796h-.659l-2.502-3.914h-.028l.028.926v2.988h-.628zM55.829 17.402c-1.925 0-3.497 1.43-3.497 3.403 0 1.957 1.572 3.402 3.497 3.402 1.929 0 3.501-1.445 3.501-3.402 0-1.973-1.572-3.403-3.501-3.403zm0 5.465c-1.056 0-1.964-.851-1.964-2.062 0-1.227.908-2.063 1.964-2.063s1.969.836 1.969 2.063c0 1.211-.913 2.062-1.969 2.062zm-7.63-5.465c-1.929 0-3.497 1.43-3.497 3.403 0 1.957 1.568 3.402 3.497 3.402 1.928 0 3.497-1.445 3.497-3.402 0-1.973-1.569-3.403-3.497-3.403zm0 5.465c-1.057 0-1.969-.851-1.969-2.062 0-1.227.912-2.063 1.969-2.063s1.965.836 1.965 2.063c0 1.211-.908 2.062-1.965 2.062zm-9.079-4.422v1.446h3.537c-.103.808-.38 1.402-.804 1.816-.516.5-1.32 1.055-2.733 1.055-2.176 0-3.881-1.715-3.881-3.84s1.704-3.84 3.881-3.84c1.177 0 2.033.449 2.665 1.031l1.044-1.019c-.884-.824-2.06-1.457-3.709-1.457-2.985 0-5.493 2.371-5.493 5.285s2.508 5.285 5.493 5.285c1.613 0 2.825-.516 3.777-1.484.976-.953 1.28-2.293 1.28-3.375 0-.336-.029-.645-.08-.903h-4.978zm37.125 1.121c-.288-.761-1.176-2.164-2.985-2.164-1.793 0-3.285 1.379-3.285 3.403 0 1.906 1.477 3.402 3.457 3.402a3.474 3.474 0 0 0 2.905-1.508l-1.188-.773c-.396.566-.937.941-1.717.941-.775 0-1.332-.347-1.688-1.031l4.662-1.883-.161-.387zm-4.753 1.133a1.887 1.887 0 0 1 1.82-1.984c.609 0 1.125.297 1.297.722l-3.117 1.262zM67.703 24h1.532V14h-1.532v10zm-2.509-5.84h-.052c-.344-.398-1.001-.758-1.832-.758-1.745 0-3.341 1.496-3.341 3.414 0 1.907 1.596 3.391 3.341 3.391.831 0 1.488-.363 1.832-.773h.052v.488c0 1.301-.712 2-1.86 2-.936 0-1.517-.66-1.756-1.215l-1.333.543a3.324 3.324 0 0 0 3.089 2.012c1.796 0 3.313-1.032 3.313-3.543v-6.11h-1.452v.551zm-1.752 4.707c-1.056 0-1.94-.863-1.94-2.051 0-1.199.884-2.074 1.94-2.074 1.041 0 1.861.875 1.861 2.074 0 1.188-.82 2.051-1.861 2.051zM83.418 14h-3.665v10h1.528v-3.789h2.137c1.697 0 3.361-1.199 3.361-3.106S85.111 14 83.418 14zm.04 4.82h-2.177v-3.429h2.177c1.141 0 1.792.925 1.792 1.714 0 .774-.651 1.715-1.792 1.715zm9.447-1.437c-1.104 0-2.252.476-2.724 1.531l1.356.555c.292-.555.828-.735 1.396-.735.793 0 1.597.465 1.609 1.286v.105c-.276-.156-.868-.387-1.597-.387-1.46 0-2.949.785-2.949 2.25 0 1.34 1.196 2.203 2.542 2.203 1.028 0 1.596-.453 1.952-.98h.052v.773h1.476v-3.836c0-1.773-1.356-2.765-3.113-2.765zm-.184 5.48c-.5 0-1.196-.242-1.196-.847 0-.774.868-1.071 1.62-1.071.673 0 .988.145 1.397.336-.12.926-.936 1.582-1.821 1.582zm8.673-5.261-1.756 4.335h-.052l-1.816-4.335h-1.648l2.729 6.058-1.557 3.371h1.597l4.204-9.429h-1.7zM87.62 24h1.532V14H87.62v10z"
                style="fill:var(--color2, #fff)" />
            <path
                d="M8.55 6.031c-.241.246-.38.629-.38 1.125v17.692c0 .496.139.879.38 1.125l.059.054 10.154-9.91v-.234L8.609 5.973l-.059.058zM22.145 19.422l-3.381-3.305v-.234l3.385-3.305.076.043 4.009 2.227c1.144.632 1.144 1.672 0 2.308l-4.089 2.266z"
                style="fill:var(--color3, #000)" />
            <path
                d="M22.225 19.379 18.764 16 8.55 25.973c.38.39 1 .437 1.704.047l11.97-6.641zM22.225 12.621 10.255 5.98c-.705-.386-1.324-.339-1.704.051L18.765 16l3.461-3.379z"
                style="fill:var(--color3, #000)" />
        </symbol>
    </defs>
</svg>